<svg xmlns="http://www.w3.org/2000/svg" viewBox="0 0 100 100" width="32" height="32">
  <!-- Background circle -->
  <circle cx="50" cy="50" r="45" fill="#5b9aa0" />
  
  <!-- Brain outline (simplified) -->
  <path d="M65,35 C65,25 55,20 45,25 C35,20 25,25 25,35 C25,45 30,50 35,55 C40,60 45,65 50,70 C55,65 60,60 65,55 C70,50 75,45 75,35 C75,25 65,25 65,35 Z" 
        fill="none" 
        stroke="white" 
        stroke-width="3" 
        stroke-linecap="round" 
        stroke-linejoin="round" />
  
  <!-- Heart symbol representing mental wellness -->
  <path d="M50,60 C47,57 44,55 41,55 C38,55 36,57 36,60 C36,63 38,65 41,65 C44,65 47,63 50,60 Z" 
        fill="white" />
  <path d="M50,60 C53,57 56,55 59,55 C62,55 64,57 64,60 C64,63 62,65 59,65 C56,65 53,63 50,60 Z" 
        fill="white" />
</svg>